<?xml version="1.0" encoding="UTF-8" standalone="no"?>
<svg
   xmlns:dc="http://purl.org/dc/elements/1.1/"
   xmlns:cc="http://creativecommons.org/ns#"
   xmlns:rdf="http://www.w3.org/1999/02/22-rdf-syntax-ns#"
   xmlns:svg="http://www.w3.org/2000/svg"
   xmlns="http://www.w3.org/2000/svg"
   id="svg2"
   xml:space="preserve"
   enable-background="new 0 0 612 563.9"
   viewBox="0 0 612 704.875"
   y="0px"
   x="0px"
   version="1.1"><metadata
     id="metadata12"><rdf:RDF><cc:Work
         rdf:about=""><dc:format>image/svg+xml</dc:format><dc:type
           rdf:resource="http://purl.org/dc/dcmitype/StillImage" /><dc:title></dc:title></cc:Work></rdf:RDF></metadata><defs
     id="defs10" /><g
     transform="translate(-6.493165,83.515695)"
     id="g4694"><path
       fill="param(fill) #000000"
       stroke="param(outline) #000"
       stroke-width="param(outline-width) 0"
       id="path6"
       d="m 425.97461,29.601562 c -71.53285,0.49401 -160.84302,42.280526 -235.73242,117.169918 -57,57 -65.79961,143.79961 -26.59961,210.09961 7.2,12.2 16.09961,23.70118 26.59961,34.20118 10.5,10.5 22.00117,19.39958 34.20117,26.59961 -46.7,37.09998 -85.4,61 -107.5,66 71.2,54.69997 209.49922,15.60039 317.69922,-92.59961 57,-57 65.79961,-143.80157 26.59961,-210.10157 -7.2,-12.2 -16.09961,-23.69922 -26.59961,-34.19922 -10.5,-10.5 -21.99922,-19.39961 -34.19922,-26.5996 46.8,-37.100005 85.49961,-61.100005 107.59961,-66.000005 -21.16719,-16.239063 -48.23916,-24.211244 -78.67578,-24.5625 -1.12636,-0.013 -2.25714,-0.01565 -3.39258,-0.0078 z M 311.69336,203.5957 c 16.55,0 33.1,6.32657 45.75,18.97657 25.3,25.3 25.3,66.19999 0,91.5 -25.3,25.3 -66.2,25.3 -91.5,0 -3.81995,-3.81996 -7.05232,-8.00001 -9.71875,-12.42383 -0.007,-0.0113 -0.0147,-0.0219 -0.0215,-0.0332 -0.13711,-0.22779 -0.2761,-0.45449 -0.41015,-0.68359 -0.007,-0.0123 -0.0143,-0.0248 -0.0215,-0.0371 -0.48129,-0.82374 -0.94884,-1.65262 -1.39062,-2.49219 -12.84766,-24.41816 -8.99375,-55.27382 11.5625,-75.83007 12.65,-12.65 29.2,-18.97657 45.75,-18.97657 z m -57.3125,94.80664 c 0.44174,0.83958 0.90953,1.66873 1.39062,2.49219 -0.48124,-0.82369 -0.94887,-1.65259 -1.39062,-2.49219 z"
       clip-path="none" /><path
       style="opacity:1;fill:#ffffff;fill-opacity:1;stroke:#000000;stroke-width:0;stroke-miterlimit:4;stroke-dasharray:none;stroke-opacity:1"
       d="m 311.69336,203.5957 c -16.55,0 -33.1,6.32658 -45.75,18.97658 -25.3,25.29999 -25.3,66.19998 0,91.49999 25.3,25.3 66.2,25.3 91.5,0 25.3,-25.30001 25.3,-66.2 0,-91.49999 -12.65,-12.65 -29.2,-18.97658 -45.75,-18.97658 z"
       id="path4690" /></g></svg>